<?xml version="1.0" encoding="UTF-8"?>
<svg width="153px" height="56px" viewBox="0 0 153 56" version="1.1" xmlns="http://www.w3.org/2000/svg" xmlns:xlink="http://www.w3.org/1999/xlink">
    <!-- Generator: Sketch 52.5 (67469) - http://www.bohemiancoding.com/sketch -->
    <title>Icons/GDF_Web</title>
    <desc>Created with Sketch.</desc>
    <defs>
        <path d="M41.6964706,10.8898462 L23.6823529,0.508307692 C22.5176471,-0.163692308 21.0682353,-0.163692308 19.9035294,0.508307692 L1.88941176,10.8898462 C0.724705882,11.5704615 0.00862745098,12.8110769 0.00862745098,14.1636923 L0.00862745098,34.944 C0.00862745098,36.288 0.724705882,37.5286154 1.88941176,38.2092308 L10.905098,43.4129231 L10.905098,54.0184615 C10.905098,54.6473846 11.4141176,55.1470769 12.0439216,55.1470769 C12.2423529,55.1470769 12.4321569,55.0953846 12.6047059,54.992 L41.7223529,38.2178462 C42.8870588,37.5458462 43.6117647,36.3052308 43.6031373,34.9526154 L43.6031373,14.1636923 C43.5945098,12.8024615 42.8698039,11.5618462 41.6964706,10.8898462 Z" id="path-1"></path>
    </defs>
    <g id="Page-1" stroke="none" stroke-width="1" fill="none" fill-rule="evenodd">
        <g id="App_UI_13" transform="translate(-918.000000, -554.000000)">
            <g id="Group-10" transform="translate(288.000000, 438.000000)">
                <g id="Group-14" transform="translate(579.000000, 88.000000)">
                    <g id="Group-15">
                        <g id="Icons/GDF_Web" transform="translate(48.000000, 24.000000)">
                            <polygon id="+" fill="#D9D9D9" points="90 33.2173913 84.3373984 33.2173913 84.3373984 39 81.6910569 39 81.6910569 33.2173913 76 33.2173913 76 30.7549407 81.6910569 30.7549407 81.6910569 25 84.3373984 25 84.3373984 30.7549407 90 30.7549407"></polygon>
                            <g id="Icons/GDF" transform="translate(102.000000, 0.000000)">
                                <g>
                                    <rect id="Rectangle" fill-rule="nonzero" x="0" y="0" width="64" height="64"></rect>
                                    <g id="Clipped" transform="translate(10.000000, 4.000000)">
                                        <mask id="mask-2" fill="white">
                                            <use xlink:href="#path-1"></use>
                                        </mask>
                                        <g id="path_1"></g>
                                        <g id="Group" mask="url(#mask-2)">
                                            <g transform="translate(0.000000, -0.861538)" id="Path">
                                                <polygon fill="#D9D9D9" points="0 12.8455385 0 37.968 10.8964706 44.2486154 10.8964706 56.8184615 43.5772549 37.968 43.5772549 12.8455385 21.7929412 25.4067692"></polygon>
                                                <polygon fill="#F1F1F1" points="0 12.8455385 21.7929412 0.284307692 43.5772549 12.8455385 21.7929412 25.4067692"></polygon>
                                                <polygon fill="#BF360C" opacity="0.1" points="43.0682353 12.544 21.4133333 25.0276923 0.138039216 12.7593846 0 12.8455385 21.7929412 25.4067692 43.5772549 12.8455385"></polygon>
                                                <polygon fill="#FFFFFF" opacity="0.1" points="21.7929412 25.4067692 0.138039216 12.9230769 0 13.0006154 21.7929412 25.5618462"></polygon>
                                            </g>
                                        </g>
                                    </g>
                                </g>
                            </g>
                            <g id="Icons/Webcallback">
                                <g id="WebCallBack">
                                    <rect id="Rectangle" fill-rule="nonzero" x="0" y="0" width="64" height="64"></rect>
                                    <path d="M20.4,35 L43.6,35 L43.6,29 L20.4,29 L20.4,35 Z M8.51,32 C8.51,25.1 13.73,19.7 20.4,19.7 L29.1,19.7 L29.1,14 L20.4,14 C10.83,14 3,22.1 3,32 C3,41.9 10.83,50 20.4,50 L29.1,50 L29.1,44.3 L20.4,44.3 C13.73,44.3 8.51,38.9 8.51,32 Z M43.6,14 L34.9,14 L34.9,19.7 L43.6,19.7 C50.27,19.7 55.49,25.1 55.49,32 C55.49,38.9 50.2701137,44.3 43.6,44.3 L34.9,44.3 L34.9,50 L43.6,50 C53.17,50 61,41.9 61,32 C61,22.1 53.17,14 43.6,14 Z" id="Shape" fill="#D9D9D9" fill-rule="nonzero"></path>
                                </g>
                            </g>
                        </g>
                    </g>
                </g>
            </g>
        </g>
    </g>
</svg>