<?xml version="1.0" encoding="UTF-8"?>
<svg width="58px" height="36px" viewBox="0 0 58 36" version="1.1" xmlns="http://www.w3.org/2000/svg" xmlns:xlink="http://www.w3.org/1999/xlink">
    <!-- Generator: Sketch 52.5 (67469) - http://www.bohemiancoding.com/sketch -->
    <title>Icons/Webcallback</title>
    <desc>Created with Sketch.</desc>
    <g id="Page-1" stroke="none" stroke-width="1" fill="none" fill-rule="evenodd">
        <g id="App_UI_13" transform="translate(-415.000000, -564.000000)">
            <g id="Group-10" transform="translate(288.000000, 438.000000)">
                <g id="Icons/Webcallback" transform="translate(124.000000, 112.000000)">
                    <g id="WebCallBack">
                        <rect id="Rectangle" fill-rule="nonzero" x="0" y="0" width="64" height="64"></rect>
                        <path d="M20.4,35 L43.6,35 L43.6,29 L20.4,29 L20.4,35 Z M8.51,32 C8.51,25.1 13.73,19.7 20.4,19.7 L29.1,19.7 L29.1,14 L20.4,14 C10.83,14 3,22.1 3,32 C3,41.9 10.83,50 20.4,50 L29.1,50 L29.1,44.3 L20.4,44.3 C13.73,44.3 8.51,38.9 8.51,32 Z M43.6,14 L34.9,14 L34.9,19.7 L43.6,19.7 C50.27,19.7 55.49,25.1 55.49,32 C55.49,38.9 50.2701137,44.3 43.6,44.3 L34.9,44.3 L34.9,50 L43.6,50 C53.17,50 61,41.9 61,32 C61,22.1 53.17,14 43.6,14 Z" id="Shape" fill="#D9D9D9" fill-rule="nonzero"></path>
                    </g>
                </g>
            </g>
        </g>
    </g>
</svg>